<svg class="svg-icon" style="width: 1em; height: 1em;vertical-align: middle;fill: currentColor;overflow: hidden;" viewBox="0 0 1024 1024" version="1.1" xmlns="http://www.w3.org/2000/svg"><path d="M512 96C282.2 96 96 282.2 96 512s186.2 416 416 416 416-186.2 416-416S741.8 96 512 96z m213 301L457.6 665.6h-0.2c-3.4 3.4-12.6 11-23.2 11-7.6 0-16.2-4.2-23.4-11.4l-112-112c-3.2-3.2-3.2-8.2 0-11.4l35.6-35.6c1.6-1.6 3.6-2.4 5.6-2.4 2 0 4 0.8 5.6 2.4l88.8 88.8 244-245.8c1.6-1.6 3.6-2.4 5.6-2.4 2.2 0 4.2 0.8 5.6 2.4l35 36.2c3.6 3.4 3.6 8.4 0.4 11.6z" fill="" /></svg>