<svg xmlns="http://www.w3.org/2000/svg" xmlns:xlink="http://www.w3.org/1999/xlink" width="175" zoomAndPan="magnify" viewBox="0 0 131.25 37.5" height="50" preserveAspectRatio="xMidYMid meet" version="1.0"><defs><g/><clipPath id="0ac9803c87"><path d="M 2.574219 2.589844 L 17 2.589844 L 17 14 L 2.574219 14 Z M 2.574219 2.589844 " clip-rule="nonzero"/></clipPath><clipPath id="1c77726d3d"><path d="M 16 2.589844 L 23 2.589844 L 23 12 L 16 12 Z M 16 2.589844 " clip-rule="nonzero"/></clipPath><clipPath id="60b197bad9"><path d="M 2.574219 6 L 17 6 L 17 17 L 2.574219 17 Z M 2.574219 6 " clip-rule="nonzero"/></clipPath><clipPath id="694e04b2d6"><path d="M 2.574219 11 L 17 11 L 17 20 L 2.574219 20 Z M 2.574219 11 " clip-rule="nonzero"/></clipPath><clipPath id="1e4eb2d95a"><path d="M 2.574219 15 L 17 15 L 17 23 L 2.574219 23 Z M 2.574219 15 " clip-rule="nonzero"/></clipPath><clipPath id="ed079070c6"><path d="M 2.574219 19 L 17 19 L 17 26 L 2.574219 26 Z M 2.574219 19 " clip-rule="nonzero"/></clipPath><clipPath id="07c4a9a159"><path d="M 2.574219 23 L 17 23 L 17 29 L 2.574219 29 Z M 2.574219 23 " clip-rule="nonzero"/></clipPath><clipPath id="bbc4f8968b"><path d="M 2.574219 27 L 17 27 L 17 32 L 2.574219 32 Z M 2.574219 27 " clip-rule="nonzero"/></clipPath><clipPath id="c4ec3d0ef2"><path d="M 2.574219 32 L 17 32 L 17 34.417969 L 2.574219 34.417969 Z M 2.574219 32 " clip-rule="nonzero"/></clipPath><clipPath id="7727a9110f"><path d="M 16 32 L 23 32 L 23 34.417969 L 16 34.417969 Z M 16 32 " clip-rule="nonzero"/></clipPath><clipPath id="fb6cd0f8d5"><path d="M 22 13 L 26 13 L 26 34.417969 L 22 34.417969 Z M 22 13 " clip-rule="nonzero"/></clipPath><clipPath id="2d34c5bd36"><path d="M 25 32 L 30 32 L 30 34.417969 L 25 34.417969 Z M 25 32 " clip-rule="nonzero"/></clipPath><clipPath id="72168dd080"><path d="M 29 19 L 31 19 L 31 34.417969 L 29 34.417969 Z M 29 19 " clip-rule="nonzero"/></clipPath><clipPath id="f95041e448"><path d="M 30 19 L 33.660156 19 L 33.660156 24 L 30 24 Z M 30 19 " clip-rule="nonzero"/></clipPath><clipPath id="e2035f239c"><path d="M 30 21 L 33.660156 21 L 33.660156 26 L 30 26 Z M 30 21 " clip-rule="nonzero"/></clipPath><clipPath id="b895664dc4"><path d="M 30 23 L 33.660156 23 L 33.660156 27 L 30 27 Z M 30 23 " clip-rule="nonzero"/></clipPath><clipPath id="f1bb389930"><path d="M 30 25 L 33.660156 25 L 33.660156 29 L 30 29 Z M 30 25 " clip-rule="nonzero"/></clipPath><clipPath id="a394877af5"><path d="M 30 27 L 33.660156 27 L 33.660156 30 L 30 30 Z M 30 27 " clip-rule="nonzero"/></clipPath><clipPath id="e0f44e2ec3"><path d="M 30 29 L 33.660156 29 L 33.660156 32 L 30 32 Z M 30 29 " clip-rule="nonzero"/></clipPath><clipPath id="93b706db0c"><path d="M 30 31 L 33.660156 31 L 33.660156 33 L 30 33 Z M 30 31 " clip-rule="nonzero"/></clipPath><clipPath id="abb8c79561"><path d="M 30 33 L 33.660156 33 L 33.660156 34.417969 L 30 34.417969 Z M 30 33 " clip-rule="nonzero"/></clipPath></defs><g clip-path="url(#0ac9803c87)"><path fill="#000000" d="M 2.59375 12.308594 C 4.96875 10.691406 7.34375 9.066406 9.71875 7.449219 C 12.089844 5.832031 14.46875 4.207031 16.847656 2.589844 C 16.847656 3.375 16.847656 4.152344 16.847656 4.933594 C 14.46875 6.433594 12.089844 7.9375 9.71875 9.4375 C 7.34375 10.9375 4.96875 12.4375 2.59375 13.941406 C 2.59375 13.398438 2.59375 12.855469 2.59375 12.308594 Z M 2.59375 12.308594 " fill-opacity="1" fill-rule="evenodd"/></g><g clip-path="url(#1c77726d3d)"><path fill="#000000" d="M 22.988281 10.085938 C 21.964844 8.832031 20.941406 7.585938 19.917969 6.339844 C 18.894531 5.089844 17.871094 3.839844 16.847656 2.589844 C 16.847656 3.375 16.847656 4.152344 16.847656 4.933594 C 17.871094 6.09375 18.894531 7.25 19.917969 8.40625 C 20.941406 9.5625 21.964844 10.71875 22.988281 11.878906 C 22.988281 11.28125 22.988281 10.6875 22.988281 10.085938 Z M 22.988281 10.085938 " fill-opacity="1" fill-rule="evenodd"/></g><g clip-path="url(#60b197bad9)"><path fill="#000000" d="M 2.59375 15.238281 C 4.96875 13.835938 7.34375 12.425781 9.71875 11.019531 C 12.089844 9.617188 14.46875 8.210938 16.847656 6.804688 C 16.847656 7.585938 16.847656 8.367188 16.847656 9.144531 C 14.46875 10.433594 12.09375 11.71875 9.71875 13.003906 C 7.34375 14.289062 4.96875 15.578125 2.59375 16.867188 C 2.59375 16.324219 2.59375 15.78125 2.59375 15.238281 Z M 2.59375 15.238281 " fill-opacity="1" fill-rule="evenodd"/></g><g clip-path="url(#694e04b2d6)"><path fill="#000000" d="M 2.59375 18.246094 C 4.96875 17.0625 7.34375 15.875 9.71875 14.691406 C 12.09375 13.507812 14.46875 12.320312 16.847656 11.136719 C 16.847656 11.917969 16.847656 12.699219 16.847656 13.480469 C 14.46875 14.546875 12.09375 15.613281 9.71875 16.679688 C 7.34375 17.746094 4.96875 18.808594 2.59375 19.875 C 2.59375 19.332031 2.59375 18.792969 2.59375 18.246094 Z M 2.59375 18.246094 " fill-opacity="1" fill-rule="evenodd"/></g><g clip-path="url(#1e4eb2d95a)"><path fill="#000000" d="M 2.59375 21.175781 C 4.96875 20.207031 7.34375 19.234375 9.71875 18.261719 C 12.09375 17.292969 14.46875 16.320312 16.847656 15.351562 C 16.847656 16.128906 16.847656 16.910156 16.847656 17.691406 C 14.46875 18.542969 12.09375 19.398438 9.71875 20.246094 C 7.34375 21.097656 4.96875 21.949219 2.59375 22.800781 C 2.59375 22.257812 2.59375 21.71875 2.59375 21.175781 Z M 2.59375 21.175781 " fill-opacity="1" fill-rule="evenodd"/></g><g clip-path="url(#ed079070c6)"><path fill="#000000" d="M 2.59375 23.941406 C 4.96875 23.171875 7.34375 22.402344 9.71875 21.636719 C 12.09375 20.867188 14.46875 20.097656 16.847656 19.328125 C 16.847656 20.109375 16.847656 20.890625 16.847656 21.667969 C 14.46875 22.320312 12.09375 22.96875 9.71875 23.617188 C 7.34375 24.265625 4.96875 24.917969 2.59375 25.566406 C 2.59375 25.023438 2.59375 24.480469 2.59375 23.941406 Z M 2.59375 23.941406 " fill-opacity="1" fill-rule="evenodd"/></g><g clip-path="url(#07c4a9a159)"><path fill="#000000" d="M 2.59375 26.867188 C 4.96875 26.3125 7.34375 25.757812 9.71875 25.203125 C 12.09375 24.652344 14.46875 24.09375 16.847656 23.542969 C 16.847656 24.324219 16.847656 25.105469 16.847656 25.882812 C 14.46875 26.320312 12.09375 26.757812 9.71875 27.191406 C 7.34375 27.625 4.96875 28.058594 2.59375 28.496094 C 2.59375 27.949219 2.59375 27.410156 2.59375 26.867188 Z M 2.59375 26.867188 " fill-opacity="1" fill-rule="evenodd"/></g><g clip-path="url(#bbc4f8968b)"><path fill="#000000" d="M 2.59375 29.875 C 4.96875 29.542969 7.34375 29.210938 9.71875 28.878906 C 12.09375 28.542969 14.46875 28.207031 16.847656 27.875 C 16.847656 28.65625 16.847656 29.433594 16.847656 30.214844 C 14.46875 30.429688 12.09375 30.644531 9.71875 30.859375 C 7.34375 31.074219 4.96875 31.289062 2.59375 31.5 C 2.59375 30.960938 2.59375 30.417969 2.59375 29.875 Z M 2.59375 29.875 " fill-opacity="1" fill-rule="evenodd"/></g><g clip-path="url(#c4ec3d0ef2)"><path fill="#000000" d="M 2.59375 32.800781 C 4.96875 32.679688 7.34375 32.566406 9.71875 32.445312 C 12.09375 32.328125 14.46875 32.207031 16.847656 32.085938 C 16.847656 32.867188 16.847656 33.644531 16.847656 34.425781 C 14.46875 34.425781 12.09375 34.425781 9.71875 34.425781 C 7.34375 34.425781 4.96875 34.425781 2.59375 34.425781 C 2.59375 33.886719 2.59375 33.34375 2.59375 32.800781 Z M 2.59375 32.800781 " fill-opacity="1" fill-rule="evenodd"/></g><path fill="#000000" d="M 22.988281 13.308594 C 21.964844 12.222656 20.941406 11.140625 19.917969 10.058594 C 18.894531 8.976562 17.871094 7.890625 16.847656 6.804688 C 16.847656 7.585938 16.847656 8.367188 16.847656 9.144531 C 17.871094 10.140625 18.894531 11.132812 19.917969 12.121094 C 20.941406 13.113281 21.964844 14.105469 22.988281 15.097656 C 22.988281 14.5 22.988281 13.90625 22.988281 13.308594 Z M 22.988281 13.308594 " fill-opacity="1" fill-rule="evenodd"/><path fill="#000000" d="M 22.988281 16.621094 C 21.964844 15.703125 20.941406 14.792969 19.917969 13.878906 C 18.894531 12.96875 17.871094 12.050781 16.847656 11.136719 C 16.847656 11.917969 16.847656 12.699219 16.847656 13.480469 C 17.871094 14.300781 18.894531 15.125 19.917969 15.945312 C 20.941406 16.765625 21.964844 17.589844 22.988281 18.410156 C 22.988281 17.816406 22.988281 17.21875 22.988281 16.621094 Z M 22.988281 16.621094 " fill-opacity="1" fill-rule="evenodd"/><path fill="#000000" d="M 22.988281 19.84375 C 21.964844 19.09375 20.941406 18.347656 19.917969 17.597656 C 18.894531 16.851562 17.871094 16.097656 16.847656 15.351562 C 16.847656 16.128906 16.847656 16.910156 16.847656 17.691406 C 17.871094 18.347656 18.894531 19.003906 19.917969 19.660156 C 20.941406 20.316406 21.964844 20.972656 22.988281 21.632812 C 22.988281 21.035156 22.988281 20.4375 22.988281 19.84375 Z M 22.988281 19.84375 " fill-opacity="1" fill-rule="evenodd"/><path fill="#000000" d="M 22.988281 22.886719 C 21.964844 22.289062 20.941406 21.703125 19.917969 21.109375 C 18.894531 20.515625 17.871094 19.921875 16.847656 19.328125 C 16.847656 20.109375 16.847656 20.890625 16.847656 21.667969 C 17.871094 22.171875 18.894531 22.671875 19.917969 23.171875 C 20.941406 23.671875 21.964844 24.171875 22.988281 24.675781 C 22.988281 24.078125 22.988281 23.480469 22.988281 22.886719 Z M 22.988281 22.886719 " fill-opacity="1" fill-rule="evenodd"/><path fill="#000000" d="M 22.988281 26.105469 C 21.964844 25.679688 20.941406 25.25 19.917969 24.824219 C 18.894531 24.398438 17.871094 23.972656 16.847656 23.542969 C 16.847656 24.324219 16.847656 25.105469 16.847656 25.882812 C 17.871094 26.222656 18.894531 26.554688 19.917969 26.890625 C 20.941406 27.226562 21.964844 27.5625 22.988281 27.898438 C 22.988281 27.300781 22.988281 26.703125 22.988281 26.105469 Z M 22.988281 26.105469 " fill-opacity="1" fill-rule="evenodd"/><path fill="#000000" d="M 22.988281 29.417969 C 21.964844 29.160156 20.941406 28.902344 19.917969 28.648438 C 18.894531 28.390625 17.871094 28.132812 16.847656 27.875 C 16.847656 28.65625 16.847656 29.433594 16.847656 30.214844 C 17.871094 30.378906 18.894531 30.546875 19.917969 30.710938 C 20.941406 30.875 21.964844 31.042969 22.988281 31.207031 C 22.988281 30.613281 22.988281 30.015625 22.988281 29.417969 Z M 22.988281 29.417969 " fill-opacity="1" fill-rule="evenodd"/><g clip-path="url(#7727a9110f)"><path fill="#000000" d="M 22.988281 32.640625 C 21.964844 32.546875 20.941406 32.457031 19.917969 32.363281 C 18.894531 32.269531 17.871094 32.179688 16.847656 32.085938 C 16.847656 32.867188 16.847656 33.644531 16.847656 34.425781 C 17.871094 34.425781 18.894531 34.425781 19.917969 34.425781 C 20.941406 34.425781 21.964844 34.425781 22.988281 34.425781 C 22.988281 33.832031 22.988281 33.234375 22.988281 32.640625 Z M 22.988281 32.640625 " fill-opacity="1" fill-rule="evenodd"/></g><g clip-path="url(#fb6cd0f8d5)"><path fill="#000000" d="M 22.988281 14.25 C 23.851562 13.914062 24.714844 13.578125 25.578125 13.242188 C 25.578125 13.765625 25.578125 14.285156 25.578125 14.800781 L 22.988281 15.734375 Z M 22.988281 16.921875 L 25.578125 16.046875 C 25.578125 16.566406 25.578125 17.085938 25.578125 17.605469 C 24.714844 17.871094 23.851562 18.136719 22.988281 18.40625 Z M 22.988281 19.667969 C 23.851562 19.421875 24.714844 19.175781 25.578125 18.929688 C 25.578125 19.449219 25.578125 19.96875 25.578125 20.488281 C 24.714844 20.707031 23.851562 20.929688 22.988281 21.152344 Z M 22.988281 22.335938 L 25.578125 21.734375 C 25.578125 22.253906 25.578125 22.769531 25.578125 23.289062 C 24.714844 23.46875 23.851562 23.644531 22.988281 23.820312 Z M 22.988281 24.859375 C 23.851562 24.699219 24.714844 24.539062 25.578125 24.382812 C 25.578125 24.898438 25.578125 25.417969 25.578125 25.9375 C 24.714844 26.074219 23.851562 26.207031 22.988281 26.34375 Z M 22.988281 27.527344 C 23.851562 27.414062 24.714844 27.300781 25.578125 27.183594 C 25.578125 27.703125 25.578125 28.222656 25.578125 28.742188 L 22.988281 29.011719 Z M 22.988281 30.273438 C 23.851562 30.207031 24.714844 30.136719 25.578125 30.066406 C 25.578125 30.585938 25.578125 31.105469 25.578125 31.625 C 24.714844 31.667969 23.851562 31.714844 22.988281 31.757812 Z M 22.988281 32.945312 C 23.851562 32.917969 24.714844 32.894531 25.578125 32.871094 C 25.578125 33.386719 25.578125 33.90625 25.578125 34.425781 L 22.988281 34.425781 Z M 22.988281 32.945312 " fill-opacity="1" fill-rule="evenodd"/></g><path fill="#000000" d="M 29.664062 18.230469 C 28.984375 17.398438 28.300781 16.566406 27.621094 15.734375 C 26.941406 14.90625 26.257812 14.074219 25.578125 13.242188 C 25.578125 13.765625 25.578125 14.285156 25.578125 14.800781 C 26.257812 15.574219 26.941406 16.34375 27.621094 17.113281 C 28.300781 17.882812 28.984375 18.652344 29.664062 19.421875 C 29.664062 19.027344 29.664062 18.628906 29.664062 18.230469 Z M 29.664062 18.230469 " fill-opacity="1" fill-rule="evenodd"/><path fill="#000000" d="M 29.664062 20.375 C 28.984375 19.652344 28.300781 18.933594 27.621094 18.210938 C 26.941406 17.492188 26.257812 16.769531 25.578125 16.046875 C 25.578125 16.566406 25.578125 17.085938 25.578125 17.605469 C 26.257812 18.265625 26.941406 18.925781 27.621094 19.585938 C 28.300781 20.246094 28.984375 20.90625 29.664062 21.566406 C 29.664062 21.167969 29.664062 20.773438 29.664062 20.375 Z M 29.664062 20.375 " fill-opacity="1" fill-rule="evenodd"/><path fill="#000000" d="M 29.664062 22.578125 C 28.984375 21.96875 28.300781 21.359375 27.621094 20.753906 C 26.9375 20.148438 26.257812 19.535156 25.578125 18.929688 C 25.578125 19.449219 25.578125 19.96875 25.578125 20.488281 C 26.257812 21.035156 26.941406 21.582031 27.621094 22.128906 C 28.300781 22.675781 28.984375 23.222656 29.664062 23.769531 C 29.664062 23.371094 29.664062 22.976562 29.664062 22.578125 Z M 29.664062 22.578125 " fill-opacity="1" fill-rule="evenodd"/><path fill="#000000" d="M 29.664062 24.722656 C 28.984375 24.222656 28.300781 23.726562 27.621094 23.230469 C 26.941406 22.730469 26.257812 22.230469 25.578125 21.734375 C 25.578125 22.253906 25.578125 22.769531 25.578125 23.289062 C 26.257812 23.730469 26.941406 24.164062 27.621094 24.601562 C 28.300781 25.039062 28.984375 25.472656 29.664062 25.914062 C 29.664062 25.515625 29.664062 25.117188 29.664062 24.722656 Z M 29.664062 24.722656 " fill-opacity="1" fill-rule="evenodd"/><path fill="#000000" d="M 29.664062 26.746094 C 28.984375 26.351562 28.300781 25.960938 27.621094 25.566406 C 26.941406 25.171875 26.257812 24.773438 25.578125 24.382812 C 25.578125 24.898438 25.578125 25.417969 25.578125 25.9375 C 26.257812 26.273438 26.941406 26.605469 27.621094 26.9375 C 28.300781 27.269531 28.984375 27.601562 29.664062 27.9375 C 29.664062 27.539062 29.664062 27.144531 29.664062 26.746094 Z M 29.664062 26.746094 " fill-opacity="1" fill-rule="evenodd"/><path fill="#000000" d="M 29.664062 28.890625 C 28.984375 28.605469 28.300781 28.320312 27.621094 28.039062 C 26.941406 27.753906 26.257812 27.46875 25.578125 27.183594 C 25.578125 27.703125 25.578125 28.222656 25.578125 28.742188 C 26.257812 28.96875 26.941406 29.191406 27.621094 29.410156 C 28.300781 29.632812 28.984375 29.859375 29.664062 30.082031 C 29.664062 29.683594 29.664062 29.289062 29.664062 28.890625 Z M 29.664062 28.890625 " fill-opacity="1" fill-rule="evenodd"/><path fill="#000000" d="M 29.664062 31.09375 C 28.984375 30.921875 28.300781 30.753906 27.621094 30.582031 C 26.9375 30.410156 26.257812 30.238281 25.578125 30.066406 C 25.578125 30.585938 25.578125 31.105469 25.578125 31.625 C 26.257812 31.734375 26.941406 31.84375 27.621094 31.953125 C 28.300781 32.0625 28.984375 32.175781 29.664062 32.285156 C 29.664062 31.886719 29.664062 31.488281 29.664062 31.09375 Z M 29.664062 31.09375 " fill-opacity="1" fill-rule="evenodd"/><g clip-path="url(#2d34c5bd36)"><path fill="#000000" d="M 29.664062 33.238281 C 28.984375 33.175781 28.300781 33.113281 27.621094 33.054688 C 26.941406 32.992188 26.257812 32.929688 25.578125 32.871094 C 25.578125 33.386719 25.578125 33.90625 25.578125 34.425781 C 26.257812 34.425781 26.941406 34.425781 27.621094 34.425781 C 28.300781 34.425781 28.984375 34.425781 29.664062 34.425781 C 29.664062 34.03125 29.664062 33.632812 29.664062 33.238281 Z M 29.664062 33.238281 " fill-opacity="1" fill-rule="evenodd"/></g><g clip-path="url(#72168dd080)"><path fill="#000000" d="M 29.664062 19.859375 C 30.035156 19.769531 30.40625 19.675781 30.777344 19.585938 C 30.777344 19.949219 30.777344 20.3125 30.777344 20.675781 C 30.40625 20.761719 30.035156 20.847656 29.664062 20.933594 Z M 29.664062 21.789062 C 30.035156 21.710938 30.40625 21.628906 30.777344 21.550781 C 30.777344 21.914062 30.777344 22.277344 30.777344 22.640625 C 30.40625 22.714844 30.035156 22.789062 29.664062 22.859375 Z M 29.664062 23.769531 C 30.035156 23.703125 30.40625 23.636719 30.777344 23.570312 C 30.777344 23.933594 30.777344 24.296875 30.777344 24.660156 C 30.40625 24.722656 30.035156 24.78125 29.664062 24.84375 Z M 29.664062 25.699219 C 30.035156 25.644531 30.40625 25.589844 30.777344 25.535156 C 30.777344 25.898438 30.777344 26.261719 30.777344 26.625 C 30.40625 26.671875 30.035156 26.722656 29.664062 26.769531 Z M 29.664062 27.519531 C 30.035156 27.476562 30.40625 27.433594 30.777344 27.386719 C 30.777344 27.753906 30.777344 28.117188 30.777344 28.480469 L 29.664062 28.589844 Z M 29.664062 29.445312 C 30.035156 29.414062 30.40625 29.382812 30.777344 29.351562 C 30.777344 29.71875 30.777344 30.082031 30.777344 30.445312 C 30.40625 30.46875 30.035156 30.492188 29.664062 30.519531 Z M 29.664062 31.429688 C 30.035156 31.410156 30.40625 31.390625 30.777344 31.371094 C 30.777344 31.734375 30.777344 32.097656 30.777344 32.460938 C 30.40625 32.476562 30.035156 32.488281 29.664062 32.5 Z M 29.664062 33.355469 C 30.035156 33.347656 30.40625 33.34375 30.777344 33.335938 C 30.777344 33.699219 30.777344 34.0625 30.777344 34.425781 L 29.664062 34.425781 Z M 29.664062 33.355469 " fill-opacity="1" fill-rule="evenodd"/></g><g clip-path="url(#f95041e448)"><path fill="#000000" d="M 33.640625 23.078125 C 33.164062 22.496094 32.6875 21.914062 32.207031 21.332031 C 31.730469 20.75 31.253906 20.167969 30.777344 19.585938 C 30.777344 19.949219 30.777344 20.3125 30.777344 20.675781 C 31.253906 21.21875 31.730469 21.757812 32.207031 22.296875 C 32.6875 22.835938 33.164062 23.375 33.640625 23.914062 C 33.640625 23.636719 33.640625 23.359375 33.640625 23.078125 Z M 33.640625 23.078125 " fill-opacity="1" fill-rule="evenodd"/></g><g clip-path="url(#e2035f239c)"><path fill="#000000" d="M 33.640625 24.582031 C 33.164062 24.078125 32.6875 23.570312 32.207031 23.066406 C 31.730469 22.5625 31.253906 22.054688 30.777344 21.550781 C 30.777344 21.914062 30.777344 22.277344 30.777344 22.640625 C 31.253906 23.105469 31.730469 23.566406 32.207031 24.027344 C 32.6875 24.492188 33.164062 24.953125 33.640625 25.417969 C 33.640625 25.136719 33.640625 24.859375 33.640625 24.582031 Z M 33.640625 24.582031 " fill-opacity="1" fill-rule="evenodd"/></g><g clip-path="url(#b895664dc4)"><path fill="#000000" d="M 33.640625 26.125 C 33.164062 25.699219 32.683594 25.273438 32.207031 24.847656 C 31.730469 24.421875 31.253906 23.996094 30.777344 23.570312 C 30.777344 23.933594 30.777344 24.296875 30.777344 24.660156 C 31.253906 25.042969 31.730469 25.429688 32.207031 25.8125 C 32.6875 26.195312 33.164062 26.578125 33.640625 26.960938 C 33.640625 26.683594 33.640625 26.40625 33.640625 26.125 Z M 33.640625 26.125 " fill-opacity="1" fill-rule="evenodd"/></g><g clip-path="url(#f1bb389930)"><path fill="#000000" d="M 33.640625 27.628906 C 33.164062 27.277344 32.6875 26.929688 32.207031 26.582031 C 31.730469 26.234375 31.253906 25.882812 30.777344 25.535156 C 30.777344 25.898438 30.777344 26.261719 30.777344 26.625 C 31.253906 26.929688 31.730469 27.238281 32.207031 27.542969 C 32.6875 27.847656 33.164062 28.15625 33.640625 28.460938 C 33.640625 28.183594 33.640625 27.90625 33.640625 27.628906 Z M 33.640625 27.628906 " fill-opacity="1" fill-rule="evenodd"/></g><g clip-path="url(#a394877af5)"><path fill="#000000" d="M 33.640625 29.046875 C 33.164062 28.769531 32.6875 28.496094 32.207031 28.21875 C 31.730469 27.941406 31.253906 27.664062 30.777344 27.386719 C 30.777344 27.753906 30.777344 28.117188 30.777344 28.480469 C 31.253906 28.714844 31.730469 28.945312 32.207031 29.179688 C 32.6875 29.414062 33.164062 29.644531 33.640625 29.878906 C 33.640625 29.601562 33.640625 29.324219 33.640625 29.046875 Z M 33.640625 29.046875 " fill-opacity="1" fill-rule="evenodd"/></g><g clip-path="url(#e0f44e2ec3)"><path fill="#000000" d="M 33.640625 30.546875 C 33.164062 30.347656 32.6875 30.148438 32.207031 29.949219 C 31.730469 29.75 31.253906 29.550781 30.777344 29.351562 C 30.777344 29.71875 30.777344 30.082031 30.777344 30.445312 C 31.253906 30.601562 31.730469 30.757812 32.207031 30.914062 C 32.6875 31.070312 33.164062 31.226562 33.640625 31.382812 C 33.640625 31.105469 33.640625 30.824219 33.640625 30.546875 Z M 33.640625 30.546875 " fill-opacity="1" fill-rule="evenodd"/></g><g clip-path="url(#93b706db0c)"><path fill="#000000" d="M 33.640625 32.089844 C 33.164062 31.972656 32.683594 31.851562 32.207031 31.734375 C 31.730469 31.613281 31.253906 31.492188 30.777344 31.371094 C 30.777344 31.734375 30.777344 32.097656 30.777344 32.460938 C 31.253906 32.539062 31.730469 32.617188 32.207031 32.695312 C 32.6875 32.773438 33.164062 32.847656 33.640625 32.925781 C 33.640625 32.648438 33.640625 32.371094 33.640625 32.089844 Z M 33.640625 32.089844 " fill-opacity="1" fill-rule="evenodd"/></g><g clip-path="url(#abb8c79561)"><path fill="#000000" d="M 33.640625 33.59375 C 33.164062 33.550781 32.6875 33.507812 32.207031 33.464844 C 31.730469 33.421875 31.253906 33.378906 30.777344 33.335938 C 30.777344 33.699219 30.777344 34.0625 30.777344 34.425781 C 31.253906 34.425781 31.730469 34.425781 32.207031 34.425781 C 32.6875 34.425781 33.164062 34.425781 33.640625 34.425781 C 33.640625 34.148438 33.640625 33.871094 33.640625 33.59375 Z M 33.640625 33.59375 " fill-opacity="1" fill-rule="evenodd"/></g><g fill="#000000" fill-opacity="1"><g transform="translate(35.972704, 29.334383)"><g><path d="M 6.875 -8.734375 C 6.8125 -8.628906 6.742188 -8.550781 6.671875 -8.5 C 6.609375 -8.457031 6.53125 -8.4375 6.4375 -8.4375 C 6.332031 -8.4375 6.21875 -8.472656 6.09375 -8.546875 C 5.976562 -8.628906 5.835938 -8.71875 5.671875 -8.8125 C 5.503906 -8.90625 5.304688 -8.988281 5.078125 -9.0625 C 4.859375 -9.132812 4.597656 -9.171875 4.296875 -9.171875 C 4.015625 -9.171875 3.769531 -9.140625 3.5625 -9.078125 C 3.351562 -9.015625 3.175781 -8.921875 3.03125 -8.796875 C 2.894531 -8.679688 2.789062 -8.539062 2.71875 -8.375 C 2.65625 -8.207031 2.625 -8.023438 2.625 -7.828125 C 2.625 -7.578125 2.691406 -7.367188 2.828125 -7.203125 C 2.972656 -7.035156 3.160156 -6.890625 3.390625 -6.765625 C 3.628906 -6.648438 3.894531 -6.546875 4.1875 -6.453125 C 4.476562 -6.359375 4.78125 -6.257812 5.09375 -6.15625 C 5.40625 -6.050781 5.707031 -5.925781 6 -5.78125 C 6.289062 -5.644531 6.550781 -5.46875 6.78125 -5.25 C 7.019531 -5.039062 7.207031 -4.78125 7.34375 -4.46875 C 7.488281 -4.164062 7.5625 -3.789062 7.5625 -3.34375 C 7.5625 -2.863281 7.476562 -2.410156 7.3125 -1.984375 C 7.144531 -1.566406 6.898438 -1.203125 6.578125 -0.890625 C 6.265625 -0.578125 5.878906 -0.328125 5.421875 -0.140625 C 4.960938 0.0351562 4.441406 0.125 3.859375 0.125 C 3.515625 0.125 3.175781 0.0859375 2.84375 0.015625 C 2.519531 -0.046875 2.207031 -0.140625 1.90625 -0.265625 C 1.601562 -0.390625 1.316406 -0.535156 1.046875 -0.703125 C 0.785156 -0.878906 0.550781 -1.070312 0.34375 -1.28125 L 0.921875 -2.234375 C 0.972656 -2.304688 1.035156 -2.363281 1.109375 -2.40625 C 1.191406 -2.457031 1.273438 -2.484375 1.359375 -2.484375 C 1.484375 -2.484375 1.617188 -2.429688 1.765625 -2.328125 C 1.910156 -2.222656 2.078125 -2.109375 2.265625 -1.984375 C 2.460938 -1.867188 2.691406 -1.757812 2.953125 -1.65625 C 3.222656 -1.550781 3.539062 -1.5 3.90625 -1.5 C 4.476562 -1.5 4.914062 -1.632812 5.21875 -1.90625 C 5.53125 -2.175781 5.6875 -2.5625 5.6875 -3.0625 C 5.6875 -3.34375 5.613281 -3.570312 5.46875 -3.75 C 5.332031 -3.925781 5.148438 -4.070312 4.921875 -4.1875 C 4.691406 -4.3125 4.425781 -4.414062 4.125 -4.5 C 3.832031 -4.582031 3.535156 -4.671875 3.234375 -4.765625 C 2.929688 -4.867188 2.628906 -4.988281 2.328125 -5.125 C 2.035156 -5.269531 1.773438 -5.453125 1.546875 -5.671875 C 1.316406 -5.890625 1.128906 -6.164062 0.984375 -6.5 C 0.847656 -6.832031 0.78125 -7.242188 0.78125 -7.734375 C 0.78125 -8.117188 0.851562 -8.492188 1 -8.859375 C 1.15625 -9.234375 1.378906 -9.5625 1.671875 -9.84375 C 1.972656 -10.132812 2.335938 -10.363281 2.765625 -10.53125 C 3.203125 -10.707031 3.703125 -10.796875 4.265625 -10.796875 C 4.898438 -10.796875 5.484375 -10.695312 6.015625 -10.5 C 6.546875 -10.300781 7 -10.023438 7.375 -9.671875 Z M 6.875 -8.734375 "/></g></g></g><g fill="#000000" fill-opacity="1"><g transform="translate(44.070688, 29.334383)"><g><path d="M 3.421875 0.125 C 2.765625 0.125 2.257812 -0.0625 1.90625 -0.4375 C 1.550781 -0.8125 1.375 -1.328125 1.375 -1.984375 L 1.375 -6.203125 L 0.609375 -6.203125 C 0.503906 -6.203125 0.414062 -6.234375 0.34375 -6.296875 C 0.28125 -6.367188 0.25 -6.46875 0.25 -6.59375 L 0.25 -7.3125 L 1.46875 -7.515625 L 1.859375 -9.578125 C 1.878906 -9.679688 1.921875 -9.757812 1.984375 -9.8125 C 2.054688 -9.863281 2.148438 -9.890625 2.265625 -9.890625 L 3.203125 -9.890625 L 3.203125 -7.515625 L 5.234375 -7.515625 L 5.234375 -6.203125 L 3.203125 -6.203125 L 3.203125 -2.109375 C 3.203125 -1.867188 3.257812 -1.679688 3.375 -1.546875 C 3.488281 -1.410156 3.648438 -1.34375 3.859375 -1.34375 C 3.972656 -1.34375 4.066406 -1.359375 4.140625 -1.390625 C 4.210938 -1.421875 4.273438 -1.445312 4.328125 -1.46875 C 4.390625 -1.5 4.441406 -1.53125 4.484375 -1.5625 C 4.535156 -1.59375 4.582031 -1.609375 4.625 -1.609375 C 4.675781 -1.609375 4.71875 -1.59375 4.75 -1.5625 C 4.789062 -1.53125 4.828125 -1.488281 4.859375 -1.4375 L 5.40625 -0.546875 C 5.144531 -0.328125 4.84375 -0.160156 4.5 -0.046875 C 4.15625 0.0664062 3.796875 0.125 3.421875 0.125 Z M 3.421875 0.125 "/></g></g></g><g fill="#000000" fill-opacity="1"><g transform="translate(49.562849, 29.334383)"><g><path d="M 2.625 -6.265625 C 2.851562 -6.710938 3.128906 -7.066406 3.453125 -7.328125 C 3.785156 -7.585938 4.171875 -7.71875 4.609375 -7.71875 C 4.960938 -7.71875 5.242188 -7.640625 5.453125 -7.484375 L 5.34375 -6.125 C 5.3125 -6.03125 5.269531 -5.960938 5.21875 -5.921875 C 5.175781 -5.890625 5.117188 -5.875 5.046875 -5.875 C 4.972656 -5.875 4.863281 -5.882812 4.71875 -5.90625 C 4.570312 -5.9375 4.429688 -5.953125 4.296875 -5.953125 C 4.085938 -5.953125 3.90625 -5.921875 3.75 -5.859375 C 3.59375 -5.796875 3.453125 -5.707031 3.328125 -5.59375 C 3.203125 -5.488281 3.085938 -5.359375 2.984375 -5.203125 C 2.890625 -5.046875 2.800781 -4.867188 2.71875 -4.671875 L 2.71875 0 L 0.90625 0 L 0.90625 -7.578125 L 1.96875 -7.578125 C 2.15625 -7.578125 2.285156 -7.539062 2.359375 -7.46875 C 2.429688 -7.40625 2.484375 -7.285156 2.515625 -7.109375 Z M 2.625 -6.265625 "/></g></g></g><g fill="#000000" fill-opacity="1"><g transform="translate(55.069773, 29.334383)"><g><path d="M 7.421875 -7.578125 L 7.421875 0 L 6.3125 0 C 6.070312 0 5.921875 -0.109375 5.859375 -0.328125 L 5.734375 -0.9375 C 5.421875 -0.625 5.078125 -0.367188 4.703125 -0.171875 C 4.328125 0.0234375 3.882812 0.125 3.375 0.125 C 2.96875 0.125 2.601562 0.0546875 2.28125 -0.078125 C 1.96875 -0.222656 1.703125 -0.425781 1.484375 -0.6875 C 1.265625 -0.945312 1.097656 -1.25 0.984375 -1.59375 C 0.878906 -1.945312 0.828125 -2.335938 0.828125 -2.765625 L 0.828125 -7.578125 L 2.65625 -7.578125 L 2.65625 -2.765625 C 2.65625 -2.296875 2.757812 -1.9375 2.96875 -1.6875 C 3.1875 -1.4375 3.507812 -1.3125 3.9375 -1.3125 C 4.25 -1.3125 4.539062 -1.378906 4.8125 -1.515625 C 5.09375 -1.660156 5.359375 -1.851562 5.609375 -2.09375 L 5.609375 -7.578125 Z M 7.421875 -7.578125 "/></g></g></g><g fill="#000000" fill-opacity="1"><g transform="translate(63.396598, 29.334383)"><g><path d="M 6.328125 -5.96875 C 6.273438 -5.90625 6.222656 -5.851562 6.171875 -5.8125 C 6.117188 -5.769531 6.039062 -5.75 5.9375 -5.75 C 5.84375 -5.75 5.75 -5.773438 5.65625 -5.828125 C 5.570312 -5.890625 5.46875 -5.957031 5.34375 -6.03125 C 5.226562 -6.101562 5.082031 -6.164062 4.90625 -6.21875 C 4.738281 -6.28125 4.53125 -6.3125 4.28125 -6.3125 C 3.957031 -6.3125 3.675781 -6.25 3.4375 -6.125 C 3.195312 -6.007812 2.992188 -5.84375 2.828125 -5.625 C 2.671875 -5.414062 2.550781 -5.15625 2.46875 -4.84375 C 2.394531 -4.539062 2.359375 -4.191406 2.359375 -3.796875 C 2.359375 -3.398438 2.398438 -3.039062 2.484375 -2.71875 C 2.578125 -2.40625 2.703125 -2.140625 2.859375 -1.921875 C 3.023438 -1.710938 3.222656 -1.550781 3.453125 -1.4375 C 3.679688 -1.332031 3.941406 -1.28125 4.234375 -1.28125 C 4.523438 -1.28125 4.757812 -1.3125 4.9375 -1.375 C 5.125 -1.445312 5.273438 -1.523438 5.390625 -1.609375 C 5.515625 -1.703125 5.625 -1.785156 5.71875 -1.859375 C 5.8125 -1.929688 5.914062 -1.96875 6.03125 -1.96875 C 6.175781 -1.96875 6.285156 -1.910156 6.359375 -1.796875 L 6.875 -1.125 C 6.675781 -0.894531 6.457031 -0.695312 6.21875 -0.53125 C 5.988281 -0.375 5.742188 -0.242188 5.484375 -0.140625 C 5.234375 -0.046875 4.972656 0.015625 4.703125 0.046875 C 4.429688 0.0859375 4.164062 0.109375 3.90625 0.109375 C 3.4375 0.109375 2.992188 0.0234375 2.578125 -0.140625 C 2.171875 -0.316406 1.8125 -0.570312 1.5 -0.90625 C 1.1875 -1.25 0.941406 -1.660156 0.765625 -2.140625 C 0.585938 -2.628906 0.5 -3.179688 0.5 -3.796875 C 0.5 -4.359375 0.578125 -4.875 0.734375 -5.34375 C 0.890625 -5.820312 1.125 -6.234375 1.4375 -6.578125 C 1.75 -6.929688 2.132812 -7.203125 2.59375 -7.390625 C 3.050781 -7.585938 3.578125 -7.6875 4.171875 -7.6875 C 4.734375 -7.6875 5.226562 -7.59375 5.65625 -7.40625 C 6.082031 -7.226562 6.46875 -6.972656 6.8125 -6.640625 Z M 6.328125 -5.96875 "/></g></g></g><g fill="#000000" fill-opacity="1"><g transform="translate(70.512781, 29.334383)"><g><path d="M 3.421875 0.125 C 2.765625 0.125 2.257812 -0.0625 1.90625 -0.4375 C 1.550781 -0.8125 1.375 -1.328125 1.375 -1.984375 L 1.375 -6.203125 L 0.609375 -6.203125 C 0.503906 -6.203125 0.414062 -6.234375 0.34375 -6.296875 C 0.28125 -6.367188 0.25 -6.46875 0.25 -6.59375 L 0.25 -7.3125 L 1.46875 -7.515625 L 1.859375 -9.578125 C 1.878906 -9.679688 1.921875 -9.757812 1.984375 -9.8125 C 2.054688 -9.863281 2.148438 -9.890625 2.265625 -9.890625 L 3.203125 -9.890625 L 3.203125 -7.515625 L 5.234375 -7.515625 L 5.234375 -6.203125 L 3.203125 -6.203125 L 3.203125 -2.109375 C 3.203125 -1.867188 3.257812 -1.679688 3.375 -1.546875 C 3.488281 -1.410156 3.648438 -1.34375 3.859375 -1.34375 C 3.972656 -1.34375 4.066406 -1.359375 4.140625 -1.390625 C 4.210938 -1.421875 4.273438 -1.445312 4.328125 -1.46875 C 4.390625 -1.5 4.441406 -1.53125 4.484375 -1.5625 C 4.535156 -1.59375 4.582031 -1.609375 4.625 -1.609375 C 4.675781 -1.609375 4.71875 -1.59375 4.75 -1.5625 C 4.789062 -1.53125 4.828125 -1.488281 4.859375 -1.4375 L 5.40625 -0.546875 C 5.144531 -0.328125 4.84375 -0.160156 4.5 -0.046875 C 4.15625 0.0664062 3.796875 0.125 3.421875 0.125 Z M 3.421875 0.125 "/></g></g></g><g fill="#000000" fill-opacity="1"><g transform="translate(76.004942, 29.334383)"><g><path d="M 7.421875 -7.578125 L 7.421875 0 L 6.3125 0 C 6.070312 0 5.921875 -0.109375 5.859375 -0.328125 L 5.734375 -0.9375 C 5.421875 -0.625 5.078125 -0.367188 4.703125 -0.171875 C 4.328125 0.0234375 3.882812 0.125 3.375 0.125 C 2.96875 0.125 2.601562 0.0546875 2.28125 -0.078125 C 1.96875 -0.222656 1.703125 -0.425781 1.484375 -0.6875 C 1.265625 -0.945312 1.097656 -1.25 0.984375 -1.59375 C 0.878906 -1.945312 0.828125 -2.335938 0.828125 -2.765625 L 0.828125 -7.578125 L 2.65625 -7.578125 L 2.65625 -2.765625 C 2.65625 -2.296875 2.757812 -1.9375 2.96875 -1.6875 C 3.1875 -1.4375 3.507812 -1.3125 3.9375 -1.3125 C 4.25 -1.3125 4.539062 -1.378906 4.8125 -1.515625 C 5.09375 -1.660156 5.359375 -1.851562 5.609375 -2.09375 L 5.609375 -7.578125 Z M 7.421875 -7.578125 "/></g></g></g><g fill="#000000" fill-opacity="1"><g transform="translate(84.331767, 29.334383)"><g><path d="M 2.625 -6.265625 C 2.851562 -6.710938 3.128906 -7.066406 3.453125 -7.328125 C 3.785156 -7.585938 4.171875 -7.71875 4.609375 -7.71875 C 4.960938 -7.71875 5.242188 -7.640625 5.453125 -7.484375 L 5.34375 -6.125 C 5.3125 -6.03125 5.269531 -5.960938 5.21875 -5.921875 C 5.175781 -5.890625 5.117188 -5.875 5.046875 -5.875 C 4.972656 -5.875 4.863281 -5.882812 4.71875 -5.90625 C 4.570312 -5.9375 4.429688 -5.953125 4.296875 -5.953125 C 4.085938 -5.953125 3.90625 -5.921875 3.75 -5.859375 C 3.59375 -5.796875 3.453125 -5.707031 3.328125 -5.59375 C 3.203125 -5.488281 3.085938 -5.359375 2.984375 -5.203125 C 2.890625 -5.046875 2.800781 -4.867188 2.71875 -4.671875 L 2.71875 0 L 0.90625 0 L 0.90625 -7.578125 L 1.96875 -7.578125 C 2.15625 -7.578125 2.285156 -7.539062 2.359375 -7.46875 C 2.429688 -7.40625 2.484375 -7.285156 2.515625 -7.109375 Z M 2.625 -6.265625 "/></g></g></g><g fill="#000000" fill-opacity="1"><g transform="translate(89.838691, 29.334383)"><g><path d="M 4.90625 -3.234375 C 4.375 -3.210938 3.925781 -3.164062 3.5625 -3.09375 C 3.207031 -3.03125 2.921875 -2.945312 2.703125 -2.84375 C 2.492188 -2.738281 2.34375 -2.617188 2.25 -2.484375 C 2.15625 -2.347656 2.109375 -2.195312 2.109375 -2.03125 C 2.109375 -1.707031 2.203125 -1.476562 2.390625 -1.34375 C 2.578125 -1.207031 2.820312 -1.140625 3.125 -1.140625 C 3.5 -1.140625 3.820312 -1.207031 4.09375 -1.34375 C 4.375 -1.476562 4.644531 -1.679688 4.90625 -1.953125 Z M 0.71875 -6.515625 C 1.59375 -7.316406 2.644531 -7.71875 3.875 -7.71875 C 4.3125 -7.71875 4.703125 -7.644531 5.046875 -7.5 C 5.398438 -7.351562 5.695312 -7.148438 5.9375 -6.890625 C 6.1875 -6.628906 6.375 -6.316406 6.5 -5.953125 C 6.625 -5.597656 6.6875 -5.207031 6.6875 -4.78125 L 6.6875 0 L 5.859375 0 C 5.679688 0 5.546875 -0.0234375 5.453125 -0.078125 C 5.359375 -0.128906 5.285156 -0.234375 5.234375 -0.390625 L 5.078125 -0.9375 C 4.878906 -0.757812 4.6875 -0.601562 4.5 -0.46875 C 4.320312 -0.34375 4.132812 -0.234375 3.9375 -0.140625 C 3.738281 -0.0546875 3.523438 0.00390625 3.296875 0.046875 C 3.078125 0.0976562 2.832031 0.125 2.5625 0.125 C 2.25 0.125 1.957031 0.0820312 1.6875 0 C 1.414062 -0.09375 1.179688 -0.222656 0.984375 -0.390625 C 0.785156 -0.566406 0.628906 -0.78125 0.515625 -1.03125 C 0.410156 -1.289062 0.359375 -1.59375 0.359375 -1.9375 C 0.359375 -2.125 0.390625 -2.3125 0.453125 -2.5 C 0.515625 -2.695312 0.617188 -2.878906 0.765625 -3.046875 C 0.910156 -3.222656 1.097656 -3.382812 1.328125 -3.53125 C 1.566406 -3.6875 1.851562 -3.820312 2.1875 -3.9375 C 2.519531 -4.050781 2.910156 -4.140625 3.359375 -4.203125 C 3.804688 -4.273438 4.320312 -4.320312 4.90625 -4.34375 L 4.90625 -4.78125 C 4.90625 -5.289062 4.796875 -5.664062 4.578125 -5.90625 C 4.359375 -6.15625 4.046875 -6.28125 3.640625 -6.28125 C 3.347656 -6.28125 3.101562 -6.242188 2.90625 -6.171875 C 2.707031 -6.097656 2.535156 -6.019531 2.390625 -5.9375 C 2.242188 -5.851562 2.109375 -5.773438 1.984375 -5.703125 C 1.867188 -5.640625 1.738281 -5.609375 1.59375 -5.609375 C 1.457031 -5.609375 1.34375 -5.640625 1.25 -5.703125 C 1.164062 -5.765625 1.097656 -5.84375 1.046875 -5.9375 Z M 0.71875 -6.515625 "/></g></g></g><g fill="#000000" fill-opacity="1"><g transform="translate(97.331354, 29.334383)"><g><path d="M 2.75 -10.96875 L 2.75 0 L 0.921875 0 L 0.921875 -10.96875 Z M 2.75 -10.96875 "/></g></g></g><g fill="#000000" fill-opacity="1"><g transform="translate(104.587802, 29.334383)"><g><path d="M 5.1875 -1.546875 C 5.550781 -1.546875 5.859375 -1.585938 6.109375 -1.671875 C 6.359375 -1.765625 6.554688 -1.882812 6.703125 -2.03125 C 6.859375 -2.1875 6.96875 -2.359375 7.03125 -2.546875 C 7.101562 -2.742188 7.140625 -2.957031 7.140625 -3.1875 C 7.140625 -3.414062 7.101562 -3.617188 7.03125 -3.796875 C 6.957031 -3.984375 6.835938 -4.140625 6.671875 -4.265625 C 6.515625 -4.398438 6.3125 -4.503906 6.0625 -4.578125 C 5.820312 -4.648438 5.523438 -4.6875 5.171875 -4.6875 L 3.171875 -4.6875 L 3.171875 -1.546875 Z M 3.171875 -9.140625 L 3.171875 -6.046875 L 4.75 -6.046875 C 5.425781 -6.046875 5.9375 -6.171875 6.28125 -6.421875 C 6.632812 -6.671875 6.8125 -7.0625 6.8125 -7.59375 C 6.8125 -8.15625 6.65625 -8.550781 6.34375 -8.78125 C 6.03125 -9.019531 5.535156 -9.140625 4.859375 -9.140625 Z M 4.859375 -10.671875 C 5.554688 -10.671875 6.15625 -10.601562 6.65625 -10.46875 C 7.15625 -10.34375 7.5625 -10.15625 7.875 -9.90625 C 8.195312 -9.65625 8.429688 -9.351562 8.578125 -9 C 8.722656 -8.65625 8.796875 -8.265625 8.796875 -7.828125 C 8.796875 -7.578125 8.757812 -7.335938 8.6875 -7.109375 C 8.613281 -6.878906 8.5 -6.664062 8.34375 -6.46875 C 8.1875 -6.269531 7.988281 -6.085938 7.75 -5.921875 C 7.507812 -5.765625 7.226562 -5.628906 6.90625 -5.515625 C 8.375 -5.179688 9.109375 -4.390625 9.109375 -3.140625 C 9.109375 -2.679688 9.019531 -2.257812 8.84375 -1.875 C 8.675781 -1.5 8.425781 -1.171875 8.09375 -0.890625 C 7.757812 -0.609375 7.351562 -0.390625 6.875 -0.234375 C 6.394531 -0.078125 5.84375 0 5.21875 0 L 1.1875 0 L 1.1875 -10.671875 Z M 4.859375 -10.671875 "/></g></g></g><g fill="#000000" fill-opacity="1"><g transform="translate(114.309808, 29.334383)"><g><path d="M 8.515625 -2.515625 C 8.628906 -2.515625 8.726562 -2.472656 8.8125 -2.390625 L 9.59375 -1.546875 C 9.15625 -1.003906 8.617188 -0.585938 7.984375 -0.296875 C 7.359375 -0.015625 6.601562 0.125 5.71875 0.125 C 4.925781 0.125 4.210938 -0.0078125 3.578125 -0.28125 C 2.941406 -0.550781 2.398438 -0.925781 1.953125 -1.40625 C 1.503906 -1.894531 1.160156 -2.472656 0.921875 -3.140625 C 0.679688 -3.816406 0.5625 -4.550781 0.5625 -5.34375 C 0.5625 -6.144531 0.691406 -6.878906 0.953125 -7.546875 C 1.210938 -8.210938 1.570312 -8.785156 2.03125 -9.265625 C 2.5 -9.742188 3.054688 -10.117188 3.703125 -10.390625 C 4.347656 -10.660156 5.0625 -10.796875 5.84375 -10.796875 C 6.613281 -10.796875 7.300781 -10.664062 7.90625 -10.40625 C 8.507812 -10.15625 9.023438 -9.820312 9.453125 -9.40625 L 8.78125 -8.484375 C 8.738281 -8.421875 8.6875 -8.367188 8.625 -8.328125 C 8.570312 -8.285156 8.488281 -8.265625 8.375 -8.265625 C 8.300781 -8.265625 8.222656 -8.285156 8.140625 -8.328125 C 8.066406 -8.367188 7.984375 -8.421875 7.890625 -8.484375 C 7.796875 -8.546875 7.6875 -8.613281 7.5625 -8.6875 C 7.445312 -8.757812 7.304688 -8.828125 7.140625 -8.890625 C 6.972656 -8.953125 6.78125 -9.003906 6.5625 -9.046875 C 6.351562 -9.085938 6.109375 -9.109375 5.828125 -9.109375 C 5.347656 -9.109375 4.910156 -9.019531 4.515625 -8.84375 C 4.117188 -8.675781 3.78125 -8.429688 3.5 -8.109375 C 3.21875 -7.785156 2.992188 -7.390625 2.828125 -6.921875 C 2.671875 -6.460938 2.59375 -5.9375 2.59375 -5.34375 C 2.59375 -4.738281 2.675781 -4.203125 2.84375 -3.734375 C 3.019531 -3.265625 3.253906 -2.867188 3.546875 -2.546875 C 3.835938 -2.234375 4.175781 -1.988281 4.5625 -1.8125 C 4.957031 -1.644531 5.382812 -1.5625 5.84375 -1.5625 C 6.113281 -1.5625 6.359375 -1.578125 6.578125 -1.609375 C 6.796875 -1.640625 6.992188 -1.6875 7.171875 -1.75 C 7.359375 -1.8125 7.535156 -1.890625 7.703125 -1.984375 C 7.867188 -2.085938 8.03125 -2.21875 8.1875 -2.375 C 8.238281 -2.414062 8.289062 -2.445312 8.34375 -2.46875 C 8.40625 -2.5 8.460938 -2.515625 8.515625 -2.515625 Z M 8.515625 -2.515625 "/></g></g></g></svg>